HIERARCHY
ROOT Hips
{
	OFFSET -0.001795 -0.223333 0.028219
	CHANNELS 6 Xposition Yposition Zposition Zrotation Yrotation Xrotation 
	JOINT LeftUpLeg
	{
		OFFSET 0.069520 -0.091406 -0.006815
		CHANNELS 3 Zrotation Yrotation Xrotation
		JOINT LeftLeg
		{
			OFFSET 0.034277 -0.375199 -0.004496
			CHANNELS 3 Zrotation Yrotation Xrotation
			JOINT LeftFoot
			{
				OFFSET -0.013596 -0.397961 -0.043693
				CHANNELS 3 Zrotation Yrotation Xrotation
				JOINT LeftToe
				{
					OFFSET 0.026358 -0.055791 0.119288
					CHANNELS 3 Zrotation Yrotation Xrotation
					End Site
					{
						OFFSET 0.000000 0.000000 0.000000
					}
				}
			}
		}
	}
	JOINT RightUpLeg
	{
		OFFSET -0.067670 -0.090522 -0.004320
		CHANNELS 3 Zrotation Yrotation Xrotation
		JOINT RightLeg
		{
			OFFSET -0.038290 -0.382569 -0.008850
			CHANNELS 3 Zrotation Yrotation Xrotation
			JOINT RightFoot
			{
				OFFSET 0.015774 -0.398415 -0.042312
				CHANNELS 3 Zrotation Yrotation Xrotation
				JOINT RightToe
				{
					OFFSET -0.025372 -0.048144 0.123348
					CHANNELS 3 Zrotation Yrotation Xrotation
					End Site
					{
						OFFSET 0.000000 0.000000 0.000000
					}
				}
			}
		}
	}
	JOINT Spine
	{
		OFFSET -0.002533 0.108963 -0.026696
		CHANNELS 3 Zrotation Yrotation Xrotation
		JOINT Spine1
		{
			OFFSET 0.005487 0.135180 0.001092
			CHANNELS 3 Zrotation Yrotation Xrotation
			JOINT Spine2
			{
				OFFSET 0.001457 0.052922 0.025425
				CHANNELS 3 Zrotation Yrotation Xrotation
				JOINT Neck
				{
					OFFSET -0.002778 0.213870 -0.042857
					CHANNELS 3 Zrotation Yrotation Xrotation
					JOINT Head
					{
						OFFSET 0.005152 0.064970 0.051349
						CHANNELS 3 Zrotation Yrotation Xrotation
						End Site
						{
							OFFSET 0.000000 0.000000 0.000000
						}
					}
				}
				JOINT LeftShoulder
				{
					OFFSET 0.078845 0.121749 -0.034090
					CHANNELS 3 Zrotation Yrotation Xrotation
					JOINT LeftArm
					{
						OFFSET 0.090977 0.030469 -0.008868
						CHANNELS 3 Zrotation Yrotation Xrotation
						JOINT LeftForeArm
						{
							OFFSET 0.259612 -0.012772 -0.027456
							CHANNELS 3 Zrotation Yrotation Xrotation
							JOINT LeftHand
							{
								OFFSET 0.249234 0.008986 -0.001171
								CHANNELS 3 Zrotation Yrotation Xrotation
								End Site
								{
									OFFSET 0.000000 0.000000 0.000000
								}
							}
						}
					}
				}
				JOINT RightShoulder
				{
					OFFSET -0.081759 0.118833 -0.038615
					CHANNELS 3 Zrotation Yrotation Xrotation
					JOINT RightArm
					{
						OFFSET -0.096012 0.032551 -0.009143
						CHANNELS 3 Zrotation Yrotation Xrotation
						JOINT RightForeArm
						{
							OFFSET -0.253742 -0.013329 -0.021401
							CHANNELS 3 Zrotation Yrotation Xrotation
							JOINT RightHand
							{
								OFFSET -0.255298 0.007772 -0.005559
								CHANNELS 3 Zrotation Yrotation Xrotation
								End Site
								{
									OFFSET 0.000000 0.000000 0.000000
								}
							}
						}
					}
				}
			}
		}
	}
}
MOTION
Frames: 15
Frame Time: 0.050000
0.000000 0.933282 0.000000 -1.126307 -23.039051 -1.305924 2.746632 -0.187215 -26.241838 -4.863372 1.537137 13.465685 10.908462 18.985574 15.959966 0.000000 0.000000 0.000000 4.670959 -0.918362 7.104400 2.012482 0.178201 6.985503 -6.676471 -12.269943 -4.344154 0.000000 0.000000 0.000000 7.866446 -0.744474 8.608767 -4.928298 1.443070 -25.573263 2.478195 22.660547 28.211815 12.460366 -3.483498 -30.285510 0.000000 0.000000 0.000000 -9.312826 -4.356251 0.552040 -62.545294 -9.224387 -5.771119 -13.021358 -58.768984 10.103715 0.000000 0.000000 0.000000 12.282531 -0.608828 0.181775 72.747673 25.249655 8.346559 9.629812 51.375211 9.604071 0.000000 0.000000 0.000000 
-0.012779 0.928611 0.033588 -2.058737 -25.224823 -1.607703 2.417908 -0.105654 -26.058987 -4.762916 1.014362 5.605591 9.334275 16.372745 15.771531 0.000000 0.000000 0.000000 5.236462 -1.193801 10.628713 0.320992 0.350407 6.552640 -6.063392 -9.811063 -5.384512 0.000000 0.000000 0.000000 8.322430 -0.732071 8.630415 -4.572803 1.398797 -27.407220 5.757367 23.085211 31.636358 9.618180 -1.850145 -32.161315 0.000000 0.000000 0.000000 -11.105739 -3.371708 0.169493 -62.182445 -9.662611 -5.639507 -20.954784 -61.896614 16.229162 0.000000 0.000000 0.000000 10.962419 -1.176248 -0.237812 75.086739 25.399837 8.776965 18.060396 53.760021 14.670551 0.000000 0.000000 0.000000 
-0.025875 0.922481 0.070833 -1.168216 -26.984387 -2.238526 0.260569 -0.639606 -24.533566 -2.212659 0.401594 2.515061 10.056798 17.080850 16.706164 0.000000 0.000000 0.000000 2.336925 -0.802091 13.126853 1.021137 0.459979 9.049063 -4.925190 -5.801678 -6.877347 0.000000 0.000000 0.000000 7.991872 -0.685111 8.546236 -3.905756 1.249934 -27.917515 4.305950 24.083083 31.136128 10.382713 -2.608124 -30.185214 0.000000 0.000000 0.000000 -9.633778 -1.949733 -0.264309 -63.357901 -9.512648 -5.874850 -18.813812 -62.900414 15.392652 0.000000 0.000000 0.000000 12.764445 -1.431195 -0.358210 74.847196 26.209496 9.037031 20.477061 53.781624 16.023959 0.000000 0.000000 0.000000 
-0.039353 0.918784 0.111299 -1.194991 -29.004979 -2.544005 0.217294 -0.561568 -23.652395 -2.798033 0.622569 5.018296 9.957477 16.532804 18.044583 0.000000 0.000000 0.000000 1.245285 -0.524983 14.687009 1.095356 0.725056 11.964415 -4.508942 -4.837052 -6.505636 0.000000 0.000000 0.000000 7.900729 -0.587927 7.512066 -2.699549 0.899510 -26.880117 4.221687 26.471655 31.712784 11.088380 -3.007842 -29.070301 0.000000 0.000000 0.000000 -8.159597 -1.192081 -0.545896 -64.939540 -12.443453 -4.527102 -16.134335 -62.831350 13.571343 0.000000 0.000000 0.000000 13.891980 -2.475539 -0.721062 75.662018 26.043079 9.222620 23.839402 55.151878 18.722526 0.000000 0.000000 0.000000 
-0.052334 0.919122 0.152331 -1.136859 -30.694497 -2.192042 -0.195496 -0.588819 -23.271440 -3.270087 0.929304 7.913854 10.694904 17.045083 20.821551 0.000000 0.000000 0.000000 0.122858 -0.207757 15.397193 0.707024 1.183421 15.327313 -2.581441 -0.610878 -5.835236 0.000000 0.000000 0.000000 8.198205 -0.448096 5.681763 -3.304159 0.947287 -26.012633 4.679721 26.546666 31.548878 12.163344 -3.599173 -30.260977 0.000000 0.000000 0.000000 -8.243200 -2.687320 0.222760 -64.234825 -13.795913 -3.627950 -6.757528 -61.835343 7.916323 0.000000 0.000000 0.000000 15.418227 -2.290765 -0.815119 75.294803 25.502242 8.393235 26.959599 55.373222 20.357335 0.000000 0.000000 0.000000 
-0.064170 0.921473 0.190329 -1.489442 -30.415277 -1.734610 -0.671080 -0.770312 -22.311471 -3.554786 1.099888 9.270129 9.888156 16.201150 19.458431 0.000000 0.000000 0.000000 -0.193950 -0.219509 13.485789 1.156384 1.983687 21.647196 -1.875740 -0.572754 -4.131902 0.000000 0.000000 0.000000 8.276633 -0.456012 5.654314 -2.379538 0.795076 -26.383064 3.296216 25.910528 31.466111 13.518544 -4.456846 -30.293267 0.000000 0.000000 0.000000 -6.760240 -2.113495 0.167970 -65.144469 -15.804976 -2.518303 -4.633570 -59.349417 6.504331 0.000000 0.000000 0.000000 15.683801 -2.675714 -1.089478 74.920994 25.460278 8.128647 29.966106 55.594764 22.133553 0.000000 0.000000 0.000000 
-0.075498 0.927117 0.223468 -0.777273 -29.852640 -1.572469 -1.772175 -1.097309 -20.623469 -3.819448 1.160649 9.194407 9.285763 15.643233 17.862834 0.000000 0.000000 0.000000 -1.552760 -0.043813 10.674975 1.758247 2.752334 27.177199 -0.341251 -0.712184 0.085656 0.000000 0.000000 0.000000 7.255169 -0.428450 5.337276 -2.443946 0.740314 -25.548582 3.111395 24.821619 30.182779 12.610792 -4.020649 -30.175538 0.000000 0.000000 0.000000 -7.621766 -3.962032 0.919251 -62.995114 -17.412437 -1.397182 -1.209607 -57.981169 4.339495 0.000000 0.000000 0.000000 15.596366 -1.070105 -0.426529 74.565374 24.613612 7.467307 29.769545 57.989938 22.822468 0.000000 0.000000 0.000000 
-0.087019 0.933100 0.252252 -1.059822 -28.565248 -0.955333 -1.960184 -1.196180 -19.459212 -3.991296 1.135692 8.690123 9.246287 15.857497 17.242709 0.000000 0.000000 0.000000 -0.817518 -0.206611 8.085181 1.410721 3.811555 32.273584 0.041819 -2.613343 3.662745 0.000000 0.000000 0.000000 7.165189 -0.421335 5.045242 -3.117245 0.918929 -25.332569 3.109362 22.786256 29.519931 11.619944 -3.975959 -28.225973 0.000000 0.000000 0.000000 -5.887128 -4.797241 1.453182 -64.224325 -19.173146 -0.159278 1.433378 -56.595535 3.034371 0.000000 0.000000 0.000000 15.187713 -0.716085 -0.461586 74.485011 24.327580 7.167344 30.517699 57.973309 22.889574 0.000000 0.000000 0.000000 
-0.099082 0.937728 0.277567 -1.401181 -28.067205 -0.609546 -1.653030 -1.144252 -17.859486 -4.480466 1.193331 7.829634 9.488314 16.389439 16.803191 0.000000 0.000000 0.000000 -1.433904 -0.111133 6.688364 2.448362 3.921829 34.788917 -0.173658 -4.765433 6.341500 0.000000 0.000000 0.000000 7.024397 -0.430279 5.071415 -3.359567 0.966826 -25.049217 3.150703 22.274212 29.551375 11.377983 -3.910334 -27.965811 0.000000 0.000000 0.000000 -5.647213 -5.862084 1.902046 -63.852437 -21.312759 1.087192 4.964434 -56.139635 1.138818 0.000000 0.000000 0.000000 15.653260 0.087053 -0.081898 73.589525 24.700704 7.175852 29.744403 58.089013 22.425518 0.000000 0.000000 0.000000 
-0.111308 0.941663 0.299672 -1.888339 -27.570326 -0.332232 -1.189086 -1.055966 -16.405312 -4.833689 1.258165 7.569949 9.422052 16.467968 16.251774 0.000000 0.000000 0.000000 -1.906707 -0.033444 5.323387 3.673114 3.753159 36.472927 0.042185 -5.574497 8.510949 0.000000 0.000000 0.000000 6.907857 -0.430462 5.024984 -3.900378 1.068569 -24.399764 3.587042 21.512666 29.361411 10.828634 -3.808983 -26.988698 0.000000 0.000000 0.000000 -5.221083 -5.648630 1.853177 -63.948130 -22.229923 1.712977 6.183136 -57.437182 0.602483 0.000000 0.000000 0.000000 15.550948 0.863156 0.240528 73.232161 25.156520 7.411878 27.541784 58.013000 20.917884 0.000000 0.000000 0.000000 
-0.122731 0.943099 0.317535 -2.740339 -26.917865 -0.028320 -0.454762 -0.924883 -15.339453 -5.175564 1.354463 7.846449 9.273517 16.525616 15.003095 0.000000 0.000000 0.000000 -1.999485 -0.000964 4.005164 4.447414 3.648202 37.787727 -0.060000 -5.952675 8.947785 0.000000 0.000000 0.000000 6.916006 -0.486363 5.654631 -4.362423 1.159412 -23.483838 3.510697 20.800691 28.928500 11.017488 -3.976523 -26.823225 0.000000 0.000000 0.000000 -4.716802 -6.094532 2.048456 -64.243303 -22.830514 2.162565 8.176609 -59.555050 -0.446788 0.000000 0.000000 0.000000 15.296044 2.136933 0.848297 73.025517 26.502146 8.362193 22.652154 57.992973 17.927194 0.000000 0.000000 0.000000 
-0.132763 0.943107 0.329547 -3.269927 -26.591621 0.362381 0.417747 -0.767529 -14.427920 -5.562851 1.501148 8.432715 9.220175 16.707464 13.630797 0.000000 0.000000 0.000000 -2.441763 0.122744 1.715934 5.128215 3.601212 39.004835 -1.361739 -7.588172 7.417491 0.000000 0.000000 0.000000 6.789780 -0.578008 6.833689 -5.066642 1.340052 -23.575502 3.396539 20.213920 29.306915 11.098986 -4.398721 -25.174759 0.000000 0.000000 0.000000 -5.173219 -6.561501 2.263239 -63.769073 -22.987987 2.187296 10.712224 -60.848878 -1.787245 0.000000 0.000000 0.000000 16.126650 3.505411 1.502938 71.855541 28.118788 9.074494 20.074930 58.087334 16.392868 0.000000 0.000000 0.000000 
-0.141159 0.942580 0.334692 -3.859807 -26.077733 0.623217 1.394687 -0.614115 -14.420578 -5.902692 1.704863 9.887381 9.200505 17.000086 12.001496 0.000000 0.000000 0.000000 -2.253900 0.235284 -0.958441 5.500930 3.702508 40.601944 -2.598593 -9.123194 5.642929 0.000000 0.000000 0.000000 6.637718 -0.690272 8.566246 -5.433309 1.440382 -23.281039 3.158634 19.930250 29.296071 11.020077 -4.353106 -25.017484 0.000000 0.000000 0.000000 -5.101038 -6.556758 2.244301 -63.757831 -22.351770 1.777498 10.406972 -63.440161 -1.724869 0.000000 0.000000 0.000000 16.188237 4.527561 2.075871 71.076143 29.327016 9.739682 16.967181 58.825891 14.865745 0.000000 0.000000 0.000000 
-0.148178 0.942796 0.332570 -4.283950 -26.300627 0.966684 2.416633 -0.428647 -14.920862 -6.108488 1.881532 11.035684 8.788597 16.397144 11.246879 0.000000 0.000000 0.000000 -2.640783 0.463996 -4.050997 5.928161 3.609393 40.793376 -3.077219 -9.015504 3.303367 0.000000 0.000000 0.000000 6.483944 -0.805714 10.920626 -6.353924 1.680465 -23.186330 3.014655 19.339455 29.159750 10.742523 -4.438464 -24.035844 0.000000 0.000000 0.000000 -5.636535 -6.301536 2.180705 -63.669717 -21.738721 1.480755 11.643081 -65.011074 -2.391910 0.000000 0.000000 0.000000 15.777666 6.260157 2.831357 70.543454 31.183150 10.874392 14.697920 60.045403 13.754365 0.000000 0.000000 0.000000 
-0.154350 0.943827 0.324098 -4.168300 -25.729946 1.159189 2.725484 -0.387483 -15.475176 -5.683346 1.757063 11.321018 8.215838 15.430280 11.409842 0.000000 0.000000 0.000000 -2.559349 0.667296 -6.598075 5.542406 3.352714 38.908737 -4.499531 -11.114574 1.318955 0.000000 0.000000 0.000000 6.092566 -0.870066 13.302316 -7.085133 1.899164 -22.871956 2.567194 18.963255 28.975035 10.707837 -4.256591 -24.759889 0.000000 0.000000 0.000000 -5.488761 -6.234068 2.130298 -64.786107 -21.076132 1.189002 10.335279 -66.078479 -1.605696 0.000000 0.000000 0.000000 14.689225 6.567361 2.979891 71.634300 32.583562 12.306815 12.151047 61.273618 12.667890 0.000000 0.000000 0.000000 
